<?xml version="1.0" standalone="no"?>
<!DOCTYPE svg PUBLIC "-//W3C//DTD SVG 20010904//EN"
 "http://www.w3.org/TR/2001/REC-SVG-20010904/DTD/svg10.dtd">
<svg version="1.0" xmlns="http://www.w3.org/2000/svg"
 width="700.000000pt" height="700.000000pt" viewBox="0 0 700.000000 700.000000"
 preserveAspectRatio="xMidYMid meet">
<metadata>
Created by potrace 1.11, written by Peter Selinger 2001-2013
</metadata>
<g transform="translate(0.000000,700.000000) scale(0.100000,-0.100000)"
fill="#000000" stroke="none">
<path d="M3498 6625 c-2 -2 -37 -6 -78 -9 -41 -4 -97 -9 -125 -11 -27 -2 -81
-7 -120 -10 -86 -8 -152 -15 -185 -20 -14 -2 -43 -7 -65 -10 -33 -4 -111 -20
-241 -50 -27 -6 -243 -78 -309 -103 -99 -37 -142 -57 -285 -129 -317 -159
-593 -362 -833 -611 -114 -117 -113 -117 -162 -177 -21 -28 -42 -52 -45 -55
-32 -30 -192 -269 -258 -386 -138 -242 -252 -533 -316 -804 -33 -140 -37 -160
-51 -260 -4 -30 -8 -57 -10 -60 -19 -30 -28 -604 -12 -740 59 -512 207 -949
460 -1356 55 -89 170 -253 211 -303 230 -274 413 -443 665 -613 147 -100 436
-251 596 -312 55 -21 109 -42 120 -47 11 -5 49 -18 85 -29 36 -12 74 -25 85
-30 60 -25 280 -77 400 -95 171 -25 230 -29 440 -29 185 0 313 6 395 19 14 2
45 6 70 9 25 3 55 8 66 10 12 2 37 7 55 10 156 25 388 91 574 163 112 44 389
179 431 210 17 13 34 23 37 23 12 0 184 115 281 188 101 76 128 99 225 187
397 364 690 809 864 1315 36 105 101 350 112 424 3 21 8 48 10 60 3 12 7 39
10 61 2 22 10 81 16 130 19 147 16 517 -5 665 -2 14 -6 50 -10 80 -37 298
-171 712 -324 1001 -70 132 -181 314 -234 384 -301 393 -561 635 -923 857
-367 226 -841 389 -1290 443 -92 11 -318 18 -327 10z m-1198 -850 c30 -9 62
-17 70 -19 8 -2 44 -13 79 -25 71 -23 134 -34 201 -35 36 -1 45 -5 49 -21 7
-41 45 -77 139 -132 53 -31 123 -77 156 -101 54 -42 241 -223 311 -303 85 -96
285 -352 285 -364 0 -10 93 -140 108 -151 10 -7 25 -9 37 -4 26 10 500 343
565 397 57 48 412 298 590 417 341 227 439 282 542 301 69 13 173 -56 258
-170 88 -120 101 -179 94 -435 -3 -102 -7 -230 -8 -285 -6 -220 -23 -240 -321
-375 -63 -28 -219 -125 -383 -238 -147 -100 -529 -387 -562 -422 -3 -3 -71
-58 -152 -123 -121 -96 -148 -123 -148 -144 0 -15 23 -56 60 -104 67 -89 117
-172 183 -305 27 -53 71 -121 106 -160 33 -38 90 -117 127 -177 84 -135 111
-169 171 -215 87 -65 94 -78 125 -212 10 -47 37 -134 60 -195 53 -146 66 -188
82 -266 28 -143 -7 -285 -102 -406 -21 -26 -69 -88 -106 -138 -115 -151 -166
-197 -249 -224 -97 -32 -116 -25 -286 114 -189 153 -221 195 -301 397 -77 193
-161 359 -268 528 -50 80 -246 374 -253 380 -3 3 -27 36 -53 73 -60 85 -86
103 -118 86 -23 -12 -103 -77 -213 -172 -332 -289 -510 -469 -717 -725 -33
-42 -120 -191 -136 -235 -16 -42 -29 -109 -37 -192 -15 -146 -84 -246 -234
-343 -193 -124 -262 -104 -432 124 -175 235 -237 451 -206 719 33 281 244 669
567 1041 19 22 60 69 90 104 120 140 307 346 332 368 16 13 76 58 135 100 170
120 233 195 233 277 0 62 -62 168 -175 300 -29 33 -97 123 -153 200 -136 188
-153 206 -198 210 -20 2 -43 10 -51 18 -7 7 -23 58 -34 112 -18 91 -24 104
-75 172 -60 81 -83 133 -77 176 2 16 15 65 30 110 27 88 31 125 19 202 -22
141 -19 158 57 355 29 75 27 68 27 121 l0 41 53 -6 c28 -3 77 -13 107 -21z"/>
</g>
</svg>
